<?xml version="1.0" encoding="UTF-8"?>
<svg version="1.1" xmlns="http://www.w3.org/2000/svg" width="256" height="256">
<path d="M0 0 C1.04514929 -0.00445668 1.04514929 -0.00445668 2.1114127 -0.0090034 C4.44580323 -0.0176739 6.78014238 -0.01919725 9.11454773 -0.02069092 C10.78848886 -0.02532024 12.46242894 -0.03034505 14.1363678 -0.03573608 C18.68397617 -0.04885061 23.23156979 -0.05530313 27.77919412 -0.05974674 C30.6209071 -0.06267884 33.46261606 -0.06678389 36.30432701 -0.07125092 C45.19703125 -0.084923 54.08972628 -0.09459122 62.98244029 -0.09845281 C73.24485017 -0.10293379 83.50712688 -0.12048475 93.76949626 -0.1494534 C101.70423064 -0.17107355 109.63892755 -0.18115726 117.57369107 -0.18249393 C122.31181693 -0.18354166 127.04981754 -0.18944287 131.78791237 -0.20731354 C136.24568729 -0.22380009 140.70324289 -0.2259469 145.16103745 -0.21717453 C146.79485219 -0.21640448 148.42867876 -0.22074261 150.06246376 -0.23063278 C152.29776178 -0.24336802 154.53228486 -0.23746757 156.76757812 -0.22705078 C158.64162559 -0.22925062 158.64162559 -0.22925062 160.5535326 -0.2314949 C165.81363149 0.32419192 169.64285646 2.00182184 173.82426453 5.32794189 C180.44473421 13.603529 179.46758343 23.08963289 179.36723328 33.10919189 C179.36163048 34.75685234 179.35736361 36.40451781 179.35437012 38.05218506 C179.34297509 42.3660488 179.31355465 46.6796043 179.28025818 50.99334717 C179.24944141 55.40431551 179.23584009 59.81533418 179.2207489 64.22637939 C179.18867919 72.86454088 179.13754842 81.50245293 179.07426453 90.14044189 C179.72910828 90.12473145 180.38395203 90.109021 181.05863953 90.09283447 C184.06375783 90.02996256 187.06873715 89.99128702 190.07426453 89.95294189 C191.10422546 89.92780518 192.1341864 89.90266846 193.19535828 89.87677002 C200.23147702 89.80954596 206.53459708 90.12467209 212.13285828 94.89434814 C212.58789734 95.49118408 213.0429364 96.08802002 213.51176453 96.70294189 C214.22139343 97.60206299 214.22139343 97.60206299 214.94535828 98.51934814 C217.18495058 101.73537169 217.18197525 103.87731985 217.13676453 107.76544189 C217.12774109 108.76833252 217.11871765 109.77122314 217.10942078 110.80450439 C217.09201843 111.96079346 217.09201843 111.96079346 217.07426453 113.14044189 C217.95469421 113.08243408 218.8351239 113.02442627 219.74223328 112.96466064 C221.48440125 112.89698486 221.48440125 112.89698486 223.26176453 112.82794189 C224.41031921 112.76993408 225.5588739 112.71192627 226.74223328 112.65216064 C231.18562027 113.30330176 232.35007562 114.60262324 235.07426453 118.14044189 C235.77290099 121.10932436 235.72916101 123.98082248 235.66801453 127.01934814 C235.66805481 127.86843246 235.66809509 128.71751678 235.6681366 129.59233093 C235.66278977 131.38179961 235.64524272 133.17126836 235.61625671 134.96051025 C235.57434556 137.69764992 235.5751948 140.43233181 235.58207703 143.16973877 C235.57158568 144.9112923 235.55864787 146.65283318 235.54301453 148.39434814 C235.54281311 149.21109512 235.54261169 150.0278421 235.54240417 150.86933899 C235.47233356 154.23536726 235.31187068 156.70955355 233.66996765 159.68707275 C232.07426453 161.14044189 232.07426453 161.14044189 230.07426453 161.14044189 C230.10044861 162.11392578 230.12663269 163.08740967 230.15361023 164.09039307 C230.24436473 167.71499492 230.30160353 171.33949717 230.34892273 174.96490479 C230.37400999 176.53148304 230.40808868 178.09794489 230.45146179 179.66412354 C230.51237679 181.92084498 230.54052951 184.17601483 230.56254578 186.43341064 C230.5883522 187.12943893 230.61415863 187.82546722 230.64074707 188.54258728 C230.64298589 192.45702403 230.19255892 193.99688703 227.66874695 197.05963135 C223.43353082 200.45633287 220.28332677 200.29413575 215.0320282 200.30157471 C213.78542671 200.30902206 213.78542671 200.30902206 212.51364136 200.31661987 C209.75649699 200.33125851 206.99941017 200.33804667 204.24223328 200.34356689 C202.32892861 200.34931739 200.41562396 200.35507513 198.50231934 200.36083984 C194.48650341 200.37135498 190.47070753 200.37719414 186.45487976 200.38067627 C181.3099105 200.38615904 176.16520615 200.41018028 171.02031994 200.43864822 C167.06634753 200.45727637 163.11243887 200.46248032 159.15842628 200.46401215 C157.26181402 200.46703931 155.3652029 200.47506998 153.46863365 200.48819733 C150.81377938 200.50525988 148.15957137 200.50337701 145.50468445 200.49688721 C144.7216394 200.50610199 143.93859436 200.51531677 143.13182068 200.52481079 C138.59412775 200.49007866 135.67739004 199.95552452 132.07426453 197.14044189 C129.53619755 193.72717942 129.07426453 192.50131845 129.07426453 188.14044189 C128.37557755 188.14412907 127.67689056 188.14781624 126.95703125 188.15161514 C109.9383998 188.24004093 92.91982688 188.30618779 75.90101624 188.34769058 C67.67075844 188.36829569 59.44065421 188.39637687 51.210495 188.44219971 C44.03515804 188.48213051 36.85993233 188.50788962 29.68448734 188.51679587 C25.88683357 188.52200012 22.08949798 188.53418866 18.29194641 188.56336212 C14.71322103 188.59063026 11.13494314 188.59886416 7.55612373 188.59287262 C5.62529907 188.5944877 3.6945225 188.6159507 1.76382446 188.63812256 C-5.284422 188.60481958 -9.95554751 187.98598547 -15.92573547 184.14044189 C-20.40003772 179.43668825 -21.05021929 175.95822474 -21.07290649 169.60070801 C-21.07658318 168.93338111 -21.08025987 168.26605421 -21.08404797 167.57850528 C-21.09507925 165.33774982 -21.0989277 163.09704075 -21.10273743 160.85626221 C-21.1090025 159.25143283 -21.11564934 157.6466049 -21.12265015 156.04177856 C-21.14368764 150.76738495 -21.15405219 145.49299104 -21.16401672 140.21856689 C-21.16806438 138.40255467 -21.17218131 136.58654261 -21.17636681 134.7705307 C-21.19541773 126.23876641 -21.20964901 117.70701078 -21.21797878 109.17522931 C-21.22775147 99.32819971 -21.25407223 89.48139488 -21.29447967 79.63444448 C-21.3246435 72.02244604 -21.3394479 64.41051204 -21.34275979 56.798455 C-21.34510997 52.25253119 -21.35406618 47.70684753 -21.37922096 43.16098785 C-21.40251143 38.88292561 -21.40673109 34.60526148 -21.39645958 30.32715225 C-21.39596434 28.7594457 -21.40228124 27.19171949 -21.41601562 25.62407303 C-21.53836773 10.82751237 -21.53836773 10.82751237 -16.92573547 5.14044189 C-11.20311828 0.61003661 -7.1563702 0.01705433 0 0 Z M-11.92573547 14.14044189 C-13.53207454 19.87861387 -13.53207454 19.87861387 -12.92573547 33.14044189 C47.46426453 33.14044189 107.85426453 33.14044189 170.07426453 33.14044189 C171.29838049 19.56793366 171.29838049 19.56793366 165.31334591 10.35175133 C162.20162881 8.66835907 159.78011365 8.76274154 156.2489624 8.75949097 C155.56303574 8.75481099 154.87710907 8.75013102 154.17039675 8.74530923 C151.8726122 8.73334589 149.57542261 8.74282134 147.27763367 8.7522583 C145.63000134 8.74819314 143.98237174 8.74285158 142.33474731 8.73632812 C137.8595167 8.72264097 133.38449336 8.72795921 128.90925908 8.73746538 C124.22706747 8.74505601 119.54489372 8.73801791 114.86270142 8.73330688 C106.99837556 8.72784705 99.1341342 8.73504635 91.26982117 8.74932861 C82.17776433 8.7656499 73.08590937 8.76037134 63.99385744 8.7438494 C56.18907476 8.73023425 48.38435285 8.72831518 40.57956213 8.7361654 C35.9175307 8.74084249 31.25559414 8.74146591 26.5935688 8.73155594 C22.20964044 8.72288834 17.82597219 8.72890438 13.44207191 8.74623871 C11.83322837 8.7502049 10.22436293 8.74906722 8.61552811 8.74245071 C6.41890684 8.73424998 4.22311852 8.74453813 2.02655029 8.75949097 C0.79746476 8.76062204 -0.43162077 8.76175312 -1.69795132 8.76291847 C-6.20179626 9.28969067 -8.76382129 10.97852772 -11.92573547 14.14044189 Z M-12.92573547 42.14044189 C-12.96698547 63.15731689 -13.00823547 84.17419189 -13.05073547 105.82794189 C-13.06894348 112.46492188 -13.08715149 119.10190186 -13.10591125 125.94000244 C-13.11259998 131.88754932 -13.11259998 131.88754932 -13.11662292 137.83509827 C-13.11969485 140.48495436 -13.12598386 143.13462017 -13.1368866 145.78443909 C-13.15317852 149.79726733 -13.15354835 153.80995373 -13.15278625 157.82281494 C-13.15998247 159.00397479 -13.16717869 160.18513464 -13.17459297 161.40208721 C-13.17183798 162.48373055 -13.16908298 163.5653739 -13.16624451 164.67979431 C-13.16808809 165.61910136 -13.16993168 166.55840841 -13.17183113 167.52617931 C-12.76367005 171.86205526 -11.74600691 174.31462164 -8.65863514 177.42287827 C-5.51878065 179.3962035 -3.87582715 179.63513991 -0.19934082 179.62145996 C0.9434433 179.62695862 2.08622742 179.63245728 3.26364136 179.63812256 C4.50801468 179.62374146 5.752388 179.60936035 7.0344696 179.59454346 C9.01066284 179.59541962 9.01066284 179.59541962 11.02677917 179.59631348 C14.63195927 179.59745973 18.23660551 179.57396557 21.84166169 179.54601765 C25.61193262 179.52098877 29.38221619 179.51866083 33.15255737 179.51391602 C40.28882612 179.50149056 47.42484936 179.46867494 54.56101006 179.42851806 C62.68669244 179.38378683 70.81238662 179.36180994 78.93816149 179.34173632 C95.65033949 179.29994179 112.36227066 179.2295983 129.07426453 179.14044189 C129.18255767 176.24360031 129.26170407 173.3508317 129.32426453 170.45294189 C129.37453796 169.22801025 129.37453796 169.22801025 129.42582703 167.97833252 C129.51313046 162.58734554 128.878845 160.20793854 125.07426453 156.14044189 C124.69538049 153.27604172 124.53515708 150.80915918 124.57817078 147.95294189 C124.57671555 147.17281738 124.57526031 146.39269287 124.57376099 145.58892822 C124.57541576 143.94492851 124.58692983 142.30091264 124.60771179 140.65704346 C124.63667459 138.14823245 124.62831152 135.6415359 124.61528015 133.13262939 C124.62151815 131.53105668 124.62990957 129.9294906 124.64067078 128.32794189 C124.63773514 127.58197754 124.6347995 126.83601318 124.6317749 126.06744385 C124.71222661 121.60072949 125.30871351 118.68981218 128.07426453 115.14044189 C130.77609508 113.78952662 133.19234659 113.80186132 136.19926453 113.57794189 C137.29496765 113.49415283 138.39067078 113.41036377 139.51957703 113.32403564 C140.3626239 113.26344971 141.20567078 113.20286377 142.07426453 113.14044189 C142.17223328 112.34380127 142.27020203 111.54716064 142.37113953 110.72637939 C143.91687774 99.7729586 143.91687774 99.7729586 148.07426453 95.14044189 C153.07426453 92.14044189 153.07426453 92.14044189 170.07426453 90.14044189 C170.07426453 74.30044189 170.07426453 58.46044189 170.07426453 42.14044189 C109.68426453 42.14044189 49.29426453 42.14044189 -12.92573547 42.14044189 Z M151.69926453 103.89044189 C150.83327503 107.00800409 150.95058011 109.92464717 151.07426453 113.14044189 C151.73426453 113.14044189 152.39426453 113.14044189 153.07426453 113.14044189 C153.20703796 112.50235596 153.3398114 111.86427002 153.47660828 111.20684814 C153.65320984 110.38055908 153.8298114 109.55427002 154.01176453 108.70294189 C154.18578796 107.87923096 154.3598114 107.05552002 154.53910828 106.20684814 C155.07426453 104.14044189 155.07426453 104.14044189 156.07426453 103.14044189 C157.60909423 103.0472474 159.14818535 103.02298389 160.68583679 103.0269165 C161.66677811 103.02699203 162.64771942 103.02706757 163.65838623 103.02714539 C164.72504013 103.03230667 165.79169403 103.03746796 166.89067078 103.04278564 C168.51995766 103.04490807 168.51995766 103.04490807 170.18215942 103.04707336 C173.66705528 103.05269141 177.15188794 103.06524697 180.63676453 103.07794189 C182.99288339 103.08295457 185.34900326 103.08751788 187.7051239 103.09161377 C193.49486196 103.10266671 199.28455251 103.11994343 205.07426453 103.14044189 C205.56926453 108.09044189 205.56926453 108.09044189 206.07426453 113.14044189 C206.73426453 113.14044189 207.39426453 113.14044189 208.07426453 113.14044189 C208.54675538 107.35646522 208.54675538 107.35646522 206.26176453 102.20294189 C203.28283843 99.39424015 200.91287484 99.01659736 196.97343445 98.97930908 C195.74151619 98.96489777 195.74151619 98.96489777 194.48471069 98.95019531 C193.60031815 98.94594543 192.7159256 98.94169556 191.80473328 98.93731689 C190.89097427 98.93161682 189.97721527 98.92591675 189.0357666 98.92004395 C187.10158952 98.91059772 185.16739638 98.90406146 183.23320007 98.90020752 C180.28344917 98.89051316 177.33439846 98.85949092 174.3848114 98.82794189 C172.50395616 98.82141042 170.62309594 98.81616051 168.74223328 98.81231689 C167.42475349 98.79379669 167.42475349 98.79379669 166.08065796 98.77490234 C160.52941423 98.79495666 155.39364904 99.18849796 151.69926453 103.89044189 Z M162.07426453 110.14044189 C162.07426453 111.13044189 162.07426453 112.12044189 162.07426453 113.14044189 C164.71426453 113.14044189 167.35426453 113.14044189 170.07426453 113.14044189 C170.07426453 112.15044189 170.07426453 111.16044189 170.07426453 110.14044189 C167.43426453 110.14044189 164.79426453 110.14044189 162.07426453 110.14044189 Z M179.07426453 110.14044189 C179.07426453 111.13044189 179.07426453 112.12044189 179.07426453 113.14044189 C185.01426453 113.14044189 190.95426453 113.14044189 197.07426453 113.14044189 C197.07426453 112.15044189 197.07426453 111.16044189 197.07426453 110.14044189 C191.13426453 110.14044189 185.19426453 110.14044189 179.07426453 110.14044189 Z M133.07426453 122.14044189 C133.04960949 126.53700362 133.0314261 130.93352909 133.01933289 135.33013916 C133.01429332 136.82689108 133.00746165 138.32363805 132.99882507 139.82037354 C132.98674294 141.96743997 132.98103261 144.11444151 132.97660828 146.26153564 C132.97137146 147.5550293 132.96613464 148.84852295 132.96073914 150.18121338 C132.7342952 153.02696594 132.7342952 153.02696594 134.07426453 154.14044189 C136.30122848 154.51216892 138.53807561 154.82496165 140.77738953 155.11309814 C141.78959564 155.24415199 141.78959564 155.24415199 142.82225037 155.37785339 C144.25446061 155.56225713 145.68694624 155.74453237 147.11967468 155.92486572 C149.30190942 156.20012213 151.48301957 156.48321649 153.66410828 156.76739502 C161.83998471 157.87542017 161.83998471 157.87542017 170.07426453 158.14044189 C170.54863953 157.00606689 171.02301453 155.87169189 171.51176453 154.70294189 C173.07426453 151.14044189 173.07426453 151.14044189 174.07426453 150.14044189 C175.86147022 149.98908245 177.65588329 149.91868412 179.44926453 149.89044189 C180.4263739 149.86466064 181.40348328 149.83887939 182.41020203 149.81231689 C185.07426453 150.14044189 185.07426453 150.14044189 186.86332703 151.34356689 C188.36166449 153.56690635 188.71798558 155.50397768 189.07426453 158.14044189 C197.69337424 157.65225013 206.25386781 156.72035955 214.82426453 155.70294189 C215.90836609 155.58072266 216.99246765 155.45850342 218.10942078 155.33258057 C219.63115906 155.14659302 219.63115906 155.14659302 221.18363953 154.95684814 C222.10112976 154.84800293 223.01862 154.73915771 223.96391296 154.62701416 C224.66032898 154.46644531 225.356745 154.30587646 226.07426453 154.14044189 C227.50344196 151.28208703 227.20407261 148.8278647 227.20707703 145.63653564 C227.20836609 144.33909424 227.20965515 143.04165283 227.21098328 141.70489502 C227.20888855 141.02821777 227.20679382 140.35154053 227.20463562 139.65435791 C227.19927654 137.58258774 227.2045897 135.51103351 227.21098328 133.43927002 C227.20969421 132.14311768 227.20840515 130.84696533 227.20707703 129.51153564 C227.20538513 127.716073 227.20538513 127.716073 227.20365906 125.88433838 C227.38689246 123.22873193 227.38689246 123.22873193 226.07426453 122.14044189 C223.18283302 122.04520284 220.31534388 122.01491162 217.42362976 122.0269165 C216.51640167 122.02677048 215.60917358 122.02662445 214.67445374 122.026474 C211.66056468 122.02717349 208.6467366 122.03496755 205.63285828 122.04278564 C203.54920485 122.0446497 201.46555099 122.04607366 199.38189697 122.04707336 C193.88603006 122.05089955 188.3901894 122.0607307 182.89433289 122.07177734 C177.29090225 122.0819893 171.6874674 122.08657052 166.08403015 122.09161377 C155.08076338 122.10235287 144.07751613 122.1194305 133.07426453 122.14044189 Z M179.07426453 158.14044189 C179.07426453 162.10044189 179.07426453 166.06044189 179.07426453 170.14044189 C179.40426453 170.14044189 179.73426453 170.14044189 180.07426453 170.14044189 C180.07426453 166.18044189 180.07426453 162.22044189 180.07426453 158.14044189 C179.74426453 158.14044189 179.41426453 158.14044189 179.07426453 158.14044189 Z M138.07426453 163.14044189 C138.05363953 167.57481689 138.03301453 172.00919189 138.01176453 176.57794189 C138.00266052 177.97842773 137.99355652 179.37891357 137.98417664 180.82183838 C137.98167908 181.91568848 137.97918152 183.00953857 137.97660828 184.13653564 C137.97137146 185.26245117 137.96613464 186.3883667 137.96073914 187.54840088 C137.77881004 190.0701506 137.77881004 190.0701506 139.07426453 191.14044189 C141.59428904 191.24080005 144.08692653 191.27661901 146.60746765 191.26983643 C147.3960466 191.27158875 148.18462555 191.27334106 148.99710083 191.27514648 C151.61659413 191.27956548 154.23602048 191.27662685 156.85551453 191.27325439 C158.66772983 191.27392742 160.47994504 191.27489743 162.29216003 191.27615356 C166.09535072 191.2776306 169.89851796 191.2754758 173.70170593 191.27081299 C178.58804948 191.2651157 183.4743381 191.26839467 188.36067963 191.27438545 C192.10431841 191.27799091 195.84794408 191.27685255 199.59158325 191.27425766 C201.39379889 191.27358835 203.19601571 191.27441696 204.99822998 191.27673721 C207.51253944 191.27926349 210.0267587 191.27542352 212.5410614 191.26983643 C213.66942665 191.27287277 213.66942665 191.27287277 214.82058716 191.27597046 C218.2353505 191.56783901 218.2353505 191.56783901 221.07426453 190.14044189 C221.16184456 188.14079207 221.18123029 186.1380808 221.17192078 184.13653564 C221.16942322 183.04268555 221.16692566 181.94883545 221.16435242 180.82183838 C221.15524841 179.42135254 221.14614441 178.0208667 221.13676453 176.57794189 C221.11613953 172.14356689 221.09551453 167.70919189 221.07426453 163.14044189 C210.51426453 164.46044189 199.95426453 165.78044189 189.07426453 167.14044189 C188.41426453 170.44044189 187.75426453 173.74044189 187.07426453 177.14044189 C183.37157092 178.9917887 179.11625206 178.59753257 175.07426453 178.14044189 C172.51176453 176.57794189 172.51176453 176.57794189 171.07426453 174.14044189 C170.57926453 170.67544189 170.57926453 170.67544189 170.07426453 167.14044189 C159.51426453 165.82044189 148.95426453 164.50044189 138.07426453 163.14044189 Z " fill="#6F76EE" transform="translate(20.925735473632813,27.85955810546875)"/>
<path d="M0 0 C8.40794614 5.94463158 14.14393867 13.48521509 16.640625 23.59375 C18.17719604 33.88209519 16.36979945 42.88070183 10.765625 51.640625 C5.45318639 58.7395474 -2.16981685 64.33068976 -11 66 C-23.10165859 66.86847197 -32.52485336 65.44572367 -42.18359375 57.69921875 C-49.90160051 50.47914791 -53.87289755 41.83857702 -54.25 31.3125 C-54.09598461 20.93186289 -50.15335622 12.60773817 -43.18359375 5.0234375 C-32.11952327 -5.48184154 -13.27366828 -8.43026437 0 0 Z M-38.9375 13.75 C-44.02163696 20.12915298 -45.76623484 26.95453417 -45 35 C-44.16997989 37.7810444 -43.14695492 40.32377185 -42 43 C-38.05279312 43 -36.98444897 41.47490891 -34 39 C-32.68861096 38.29114106 -31.36222983 37.60543548 -30 37 C-30.515625 35.865625 -31.03125 34.73125 -31.5625 33.5625 C-33.72269061 27.78834121 -33.14082959 22.76200848 -30.8125 17.125 C-27.97525858 13.79857902 -25.15046981 12.27686825 -20.78515625 11.71484375 C-15.94180219 11.52949077 -13.01464242 12.08026005 -9 15 C-8.34 15 -7.68 15 -7 15 C-4.53865706 20.08677541 -3.17453182 25.80395652 -4.609375 31.359375 C-5.32789144 33.27089986 -6.15497091 35.140936 -7 37 C-6.45730469 37.33773437 -5.91460937 37.67546875 -5.35546875 38.0234375 C-4.28232422 38.69246094 -4.28232422 38.69246094 -3.1875 39.375 C-2.47980469 39.81585938 -1.77210937 40.25671875 -1.04296875 40.7109375 C0.65432039 41.78188476 2.33014358 42.88676239 4 44 C7.78480698 39.22785207 8.13759953 33.90059174 8 28 C6.3719447 19.37534343 2.06874077 13.45242856 -4.90234375 8.296875 C-16.38348722 1.19866339 -29.9277926 4.34529499 -38.9375 13.75 Z M-23.4375 22.125 C-25.39072944 24.96545506 -25.39072944 24.96545506 -24.25 28.3125 C-23.8375 29.199375 -23.425 30.08625 -23 31 C-17.71800407 32.19988045 -17.71800407 32.19988045 -13 30 C-11.90383904 27.68805807 -11.90383904 27.68805807 -12 25 C-13.49602502 22.08829743 -13.49602502 22.08829743 -16 20 C-19.65068864 19.08732784 -20.59755048 19.64914657 -23.4375 22.125 Z M-32 48 C-33.4818964 50.0351761 -33.4818964 50.0351761 -34 52 C-28.48331444 56.66796471 -22.86783139 57.43226481 -15.8359375 57.3359375 C-11.44756148 56.81610232 -7.83675301 55.12205599 -4 53 C-4 51.68 -4 50.36 -4 49 C-9.02122071 44.1581086 -15.19307893 44.72196026 -21.7890625 44.78125 C-25.98632245 45.06719472 -28.43562641 45.78216754 -32 48 Z " fill="#9A51FA" transform="translate(74,86)"/>
<path d="M0 0 C1.60298698 -0.00569504 1.60298698 -0.00569504 3.23835754 -0.01150513 C6.77370471 -0.01891968 10.30823163 0.00248414 13.84350586 0.02490234 C16.29682824 0.02728615 18.75015247 0.02819223 21.20347595 0.02767944 C26.34572776 0.03080894 31.48770106 0.04738726 36.62988281 0.07421875 C43.23001377 0.10821643 49.82983877 0.11584691 56.43004704 0.11432838 C61.49571162 0.11487152 66.56130896 0.12582928 71.62695122 0.14033127 C74.06108529 0.146707 76.495227 0.15063997 78.92936897 0.15211868 C82.32674336 0.15644237 85.72378957 0.17392312 89.12109375 0.1953125 C90.13260498 0.19440613 91.14411621 0.19349976 92.1862793 0.19256592 C93.57212975 0.20536087 93.57212975 0.20536087 94.98597717 0.21841431 C95.78919435 0.221766 96.59241152 0.22511768 97.41996861 0.22857094 C99.49584961 0.48583984 99.49584961 0.48583984 102.49584961 2.48583984 C102.8840332 5.25146484 102.8840332 5.25146484 102.89428711 8.73583984 C102.8981543 9.98365234 102.90202148 11.23146484 102.90600586 12.51708984 C102.8944043 13.82677734 102.88280273 15.13646484 102.87084961 16.48583984 C102.88245117 17.79552734 102.89405273 19.10521484 102.90600586 20.45458984 C102.90213867 21.70240234 102.89827148 22.95021484 102.89428711 24.23583984 C102.89090332 25.38568359 102.88751953 26.53552734 102.8840332 27.72021484 C102.69188232 29.08919922 102.69188232 29.08919922 102.49584961 30.48583984 C99.32892425 32.59712342 98.56243433 32.73831636 94.94128418 32.75326538 C94.00752457 32.76179535 93.07376495 32.77032532 92.11170959 32.77911377 C91.08927658 32.7782074 90.06684357 32.77730103 89.01342773 32.77636719 C87.9351622 32.78308441 86.85689667 32.78980164 85.74595642 32.79672241 C82.17295761 32.81575886 78.60014601 32.81962922 75.02709961 32.82177734 C72.54992596 32.8282004 70.07275308 32.83492838 67.59558105 32.84194946 C62.40037272 32.85393571 57.20523096 32.8576288 52.01000977 32.85644531 C46.66711543 32.85537584 41.32450965 32.86948761 35.98168945 32.89746094 C29.53969042 32.93071314 23.09795123 32.94455963 16.65586853 32.94322586 C14.19659457 32.945592 11.73731819 32.95447201 9.27809143 32.96989059 C5.84451176 32.98940512 2.41186499 32.98376975 -1.02172852 32.97167969 C-2.04416153 32.9829187 -3.06659454 32.99415771 -4.12001038 33.0057373 C-5.05376999 32.99734833 -5.9875296 32.98895935 -6.94958496 32.98031616 C-8.16742046 32.98195046 -8.16742046 32.98195046 -9.4098587 32.98361778 C-11.50415039 32.48583984 -11.50415039 32.48583984 -13.26355743 30.61704445 C-15.73807083 26.36609791 -14.9727217 21.27647157 -14.94165039 16.48583984 C-14.96163086 15.39271484 -14.98161133 14.29958984 -15.00219727 13.17333984 C-15.00123047 11.59552734 -15.00123047 11.59552734 -15.00024414 9.98583984 C-15.00209717 9.02677734 -15.0039502 8.06771484 -15.00585938 7.07958984 C-13.45259845 -0.95050462 -6.6400376 -0.07392614 0 0 Z M-5.50415039 9.48583984 C-5.50415039 14.10583984 -5.50415039 18.72583984 -5.50415039 23.48583984 C27.16584961 23.48583984 59.83584961 23.48583984 93.49584961 23.48583984 C93.49584961 18.86583984 93.49584961 14.24583984 93.49584961 9.48583984 C60.82584961 9.48583984 28.15584961 9.48583984 -5.50415039 9.48583984 Z " fill="#9059F7" transform="translate(34.504150390625,162.51416015625)"/>
<path d="M0 0 C0.85247314 -0.00700928 1.70494629 -0.01401855 2.58325195 -0.02124023 C5.3995832 -0.03883756 8.21490864 -0.02719147 11.03125 -0.01367188 C12.98893425 -0.01636629 14.9466172 -0.02024829 16.90429688 -0.02526855 C21.00664007 -0.03116595 25.10863482 -0.02259281 29.2109375 -0.00390625 C34.47045628 0.01888337 39.72915864 0.00576159 44.98864746 -0.01819611 C49.0309871 -0.03264751 53.07313305 -0.0280511 57.11547852 -0.01768494 C59.05476986 -0.01501583 60.99407877 -0.01829385 62.93334961 -0.02760315 C65.6435405 -0.03775789 68.35240775 -0.02228315 71.0625 0 C71.86469971 -0.00809692 72.66689941 -0.01619385 73.4934082 -0.02453613 C77.19028567 0.0318003 79.13166964 0.19650605 82.06054688 2.54992676 C82.54587891 3.19925171 83.03121094 3.84857666 83.53125 4.51757812 C82.87125 6.16757812 82.21125 7.81757812 81.53125 9.51757812 C51.17125 9.51757812 20.81125 9.51757812 -10.46875 9.51757812 C-11.12875 7.86757813 -11.78875 6.21757813 -12.46875 4.51757812 C-8.99789202 -0.12607723 -5.40618398 -0.05456679 0 0 Z " fill="#7B6BF1" transform="translate(92.46875,43.482421875)"/>
<path d="M0 0 C1.85202026 -0.00945648 1.85202026 -0.00945648 3.74145508 -0.019104 C5.09456525 -0.01552432 6.44767412 -0.01142238 7.80078125 -0.00683594 C9.18318754 -0.00818268 10.56559338 -0.01012329 11.94799805 -0.01263428 C14.84656276 -0.01558511 17.74500428 -0.0112893 20.64355469 -0.00195312 C24.36288762 0.00944152 28.08193193 0.00288181 31.80125427 -0.00909805 C34.65623152 -0.01631782 37.5111401 -0.01402822 40.36611938 -0.00884247 C41.73768142 -0.00750629 43.10924964 -0.0091526 44.48080444 -0.01380157 C46.39605595 -0.01886842 48.31132926 -0.00977925 50.2265625 0 C51.31751221 0.00159119 52.40846191 0.00318237 53.5324707 0.00482178 C56.11328125 0.25878906 56.11328125 0.25878906 58.11328125 2.25878906 C58.36328125 4.75878906 58.36328125 4.75878906 58.11328125 7.25878906 C55.4098621 9.96220821 54.0074408 9.51206359 50.2265625 9.51757812 C48.99188232 9.52388245 47.75720215 9.53018677 46.48510742 9.53668213 C45.13199725 9.53310245 43.77888838 9.52900051 42.42578125 9.52441406 C41.04337496 9.52576081 39.66096912 9.52770142 38.27856445 9.5302124 C35.37999974 9.53316324 32.48155822 9.52886742 29.58300781 9.51953125 C25.86367488 9.50813661 22.14463057 9.51469631 18.42530823 9.52667618 C15.57033098 9.53389594 12.7154224 9.53160634 9.86044312 9.52642059 C8.48888108 9.52508441 7.11731286 9.52673072 5.74575806 9.5313797 C3.83050655 9.53644654 1.91523324 9.52735737 0 9.51757812 C-1.09094971 9.51598694 -2.18189941 9.51439575 -3.3059082 9.51275635 C-5.88671875 9.25878906 -5.88671875 9.25878906 -7.88671875 7.25878906 C-8.13671875 4.75878906 -8.13671875 4.75878906 -7.88671875 2.25878906 C-5.1832996 -0.44463008 -3.7808783 0.00551454 0 0 Z " fill="#7372EF" transform="translate(118.88671875,89.7412109375)"/>
<path d="M0 0 C0.87100342 -0.00307663 1.74200684 -0.00615326 2.6394043 -0.00932312 C3.57695557 -0.0021376 4.51450684 0.00504791 5.48046875 0.01245117 C6.92836792 0.0131385 6.92836792 0.0131385 8.40551758 0.01383972 C10.44646433 0.01686089 12.48740879 0.02474313 14.52832031 0.03710938 C17.65568189 0.05534826 20.78274707 0.05761914 23.91015625 0.05737305 C25.89192965 0.06228903 27.87370104 0.0681177 29.85546875 0.07495117 C30.79302002 0.076064 31.73057129 0.07717682 32.6965332 0.07832336 C34.00303833 0.08789314 34.00303833 0.08789314 35.3359375 0.09765625 C36.10188232 0.10146805 36.86782715 0.10527985 37.65698242 0.10920715 C39.66796875 0.24291992 39.66796875 0.24291992 42.66796875 1.24291992 C43.29296875 4.11791992 43.29296875 4.11791992 43.66796875 7.24291992 C41.66796875 9.24291992 41.66796875 9.24291992 39.61192322 9.49015808 C38.7666658 9.48873306 37.92140839 9.48730804 37.05053711 9.48583984 C36.09291977 9.48891647 35.13530243 9.4919931 34.14866638 9.49516296 C33.1121846 9.48797745 32.07570282 9.48079193 31.0078125 9.47338867 C29.94760391 9.47293045 28.88739532 9.47247223 27.7950592 9.47200012 C25.55143109 9.46897563 23.30780513 9.46108348 21.06420898 9.44873047 C17.61629866 9.43047726 14.16865671 9.42822071 10.72070312 9.4284668 C8.54557058 9.42355168 6.37043986 9.41772339 4.1953125 9.41088867 C3.15680649 9.40977585 2.11830048 9.40866302 1.04832458 9.40751648 C0.09385941 9.40113663 -0.86060577 9.39475677 -1.84399414 9.38818359 C-2.68845596 9.3843718 -3.53291779 9.38056 -4.40296936 9.37663269 C-6.33203125 9.24291992 -6.33203125 9.24291992 -7.33203125 8.24291992 C-7.58203125 5.30541992 -7.58203125 5.30541992 -7.33203125 2.24291992 C-4.21362021 0.16397923 -3.53720477 -0.00658087 0 0 Z " fill="#776EF0" transform="translate(118.33203125,111.757080078125)"/>
<path d="M0 0 C1.21880859 -0.020625 2.43761719 -0.04125 3.69335938 -0.0625 C4.85544922 -0.06765625 6.01753906 -0.0728125 7.21484375 -0.078125 C8.28726318 -0.0874707 9.35968262 -0.09681641 10.46459961 -0.10644531 C11.7505603 0.06999512 11.7505603 0.06999512 13.0625 0.25 C15.0625 3.25 15.0625 3.25 14.8125 5.3125 C14.0625 7.25 14.0625 7.25 12.0625 9.25 C9.77172852 9.50878906 9.77172852 9.50878906 6.94140625 9.515625 C5.92369141 9.51820313 4.90597656 9.52078125 3.85742188 9.5234375 C2.79072266 9.51570312 1.72402344 9.50796875 0.625 9.5 C-0.96924805 9.51160156 -0.96924805 9.51160156 -2.59570312 9.5234375 C-3.61470703 9.52085937 -4.63371094 9.51828125 -5.68359375 9.515625 C-7.08629517 9.51224121 -7.08629517 9.51224121 -8.51733398 9.50878906 C-10.9375 9.25 -10.9375 9.25 -13.9375 7.25 C-14.1875 4.1875 -14.1875 4.1875 -13.9375 1.25 C-11.28035458 -1.40714542 -3.57695491 0.01508468 0 0 Z " fill="#7D69F2" transform="translate(124.9375,134.75)"/>
<path d="M0 0 C2.875 0.6875 2.875 0.6875 3.875 1.6875 C4 4.6875 4 4.6875 3.875 7.6875 C2.875 8.6875 2.875 8.6875 1.0625 8.8203125 C0.340625 8.81773438 -0.38125 8.81515625 -1.125 8.8125 C-1.846875 8.81507812 -2.56875 8.81765625 -3.3125 8.8203125 C-5.125 8.6875 -5.125 8.6875 -6.125 7.6875 C-6.375 4.75 -6.375 4.75 -6.125 1.6875 C-3.125 -0.3125 -3.125 -0.3125 0 0 Z " fill="#9F4CFC" transform="translate(45.125,44.3125)"/>
<path d="M0 0 C2.8125 0.8125 2.8125 0.8125 3.8125 1.8125 C3.52519945 4.15194736 3.19313221 6.4864143 2.8125 8.8125 C0.1725 8.8125 -2.4675 8.8125 -5.1875 8.8125 C-5.8475 7.1625 -6.5075 5.5125 -7.1875 3.8125 C-3.9984029 -0.23520017 -3.9984029 -0.23520017 0 0 Z " fill="#A547FC" transform="translate(30.1875,44.1875)"/>
<path d="M0 0 C0.66 0.66 1.32 1.32 2 2 C1.44444444 6.55555556 1.44444444 6.55555556 0 8 C-3.4375 8.1875 -3.4375 8.1875 -7 8 C-7.66 7.34 -8.32 6.68 -9 6 C-8.625 2.875 -8.625 2.875 -8 0 C-4.67679974 -1.10773342 -3.30835256 -0.93312508 0 0 Z " fill="#9B50FA" transform="translate(63,45)"/>
</svg>
