<?xml version="1.0" standalone="no"?>
<!DOCTYPE svg PUBLIC "-//W3C//DTD SVG 20010904//EN"
 "http://www.w3.org/TR/2001/REC-SVG-20010904/DTD/svg10.dtd">
<svg version="1.0" xmlns="http://www.w3.org/2000/svg"
 width="256.000000pt" height="256.000000pt" viewBox="0 0 256.000000 256.000000"
 preserveAspectRatio="xMidYMid meet">

<g transform="translate(0.000000,256.000000) scale(0.100000,-0.100000)"
fill="#000000" stroke="none">
<path d="M122 2263 c-36 -7 -99 -73 -111 -118 -15 -54 -15 -1554 -1 -1607 14
-48 55 -97 97 -114 26 -11 161 -14 718 -14 l685 0 0 -25 c0 -29 45 -80 78 -90
20 -6 22 -3 22 28 0 22 -6 37 -15 41 -22 8 -22 296 0 296 10 0 15 10 15 34 0
33 -2 35 -37 38 l-38 3 -3 168 -2 167 40 0 c39 0 40 1 40 35 l0 35 -49 0 c-43
0 -53 -4 -75 -31 -26 -30 -26 -32 -26 -200 0 -133 3 -176 15 -199 9 -17 20
-30 25 -30 6 0 10 -42 10 -100 l0 -100 -675 0 c-724 0 -718 0 -745 49 -6 13
-10 246 -10 680 l0 661 765 0 765 0 0 35 0 35 -448 0 c-247 0 -591 3 -765 7
l-317 6 0 89 c0 49 5 98 11 110 26 48 30 48 799 48 l720 0 0 35 0 35 -732 -1
c-403 -1 -743 -4 -756 -6z"/>
<path d="M256 2094 c-9 -8 -16 -19 -16 -24 0 -12 29 -40 41 -40 22 0 49 22 49
38 0 39 -45 55 -74 26z"/>
<path d="M412 2098 c-20 -20 -14 -48 13 -60 30 -14 55 3 55 37 0 33 -44 47
-68 23z"/>
<path d="M562 2098 c-18 -18 -14 -46 8 -58 27 -15 57 -4 66 22 11 36 -46 64
-74 36z"/>
<path d="M826 2094 c-20 -20 -20 -29 1 -50 16 -16 39 -17 272 -11 140 4 312 7
383 7 l128 0 0 35 0 35 -384 0 c-336 0 -387 -2 -400 -16z"/>
<path d="M438 1715 c-54 -20 -120 -68 -152 -109 -52 -69 -70 -124 -71 -216 0
-73 4 -93 28 -142 35 -71 91 -129 159 -165 48 -25 63 -28 153 -28 89 0 106 3
150 26 66 36 130 101 163 169 22 46 26 69 26 140 1 71 -4 94 -26 142 -32 69
-96 136 -163 169 -61 30 -206 38 -267 14z m227 -79 c56 -26 119 -90 143 -145
23 -53 20 -156 -6 -208 l-21 -41 -36 33 c-19 18 -48 36 -65 40 -36 8 -36 8 -9
44 66 90 -3 221 -116 221 -113 0 -182 -131 -116 -221 26 -35 26 -39 2 -39 -11
0 -41 -16 -66 -36 -26 -19 -48 -34 -50 -32 -39 45 -51 174 -23 239 43 99 148
169 253 169 42 0 75 -7 110 -24z m-64 -144 c48 -40 17 -122 -46 -122 -40 0
-68 30 -68 72 0 36 32 68 68 68 13 0 33 -8 46 -18z m73 -254 c14 -6 33 -22 41
-35 15 -22 14 -24 -17 -43 -49 -30 -107 -43 -170 -37 -58 5 -138 41 -138 62 0
15 21 40 45 53 27 15 207 15 239 0z"/>
<path d="M1124 1636 c-3 -8 -4 -23 -2 -33 3 -17 21 -18 246 -21 l242 -2 0 35
0 35 -240 0 c-200 0 -242 -2 -246 -14z"/>
<path d="M1132 1418 c-18 -18 -15 -46 6 -55 9 -4 117 -7 239 -5 216 3 222 4
229 24 13 43 -13 48 -246 48 -155 0 -219 -3 -228 -12z"/>
<path d="M1123 1184 c-14 -38 9 -49 113 -52 113 -3 139 1 148 24 14 36 -11 44
-136 44 -101 0 -120 -2 -125 -16z"/>
<path d="M226 904 c-13 -12 -16 -39 -16 -130 0 -64 5 -124 10 -135 10 -18 27
-19 564 -19 503 0 555 2 567 17 10 12 14 49 14 135 0 107 -2 121 -19 134 -17
12 -110 14 -562 14 -480 0 -544 -2 -558 -16z m1064 -134 l0 -80 -502 2 -503 3
-3 64 c-2 35 -1 70 2 77 4 12 94 14 506 14 l500 0 0 -80z"/>
</g>
</svg>
